<svg xmlns="http://www.w3.org/2000/svg" viewBox="0 0 98.3 42.5"><path d="M19.8 42.2c-1.5-1.4-2.7-3.1-3.7-4.9 1.5-2.5 4.7-3.3 7.2-1.9.8.5 1.4 1.1 1.9 1.9-1 1.8-2.2 3.4-3.7 4.9-.5.4-1.2.4-1.7 0m3.2-8.8c1.8-.1 3.6-.4 5.4-.8 3.5-.8 6.8-2.5 9.4-5.1l.7-.7c.9.7 1.7 1.4 2.5 2.2.4.5.4 1.2 0 1.6-.2.2-4.8 5.3-10.6 5.3-2.7-.1-5.2-.9-7.4-2.5M.3 30.7c-.4-.5-.4-1.2 0-1.6.8-.8 1.6-1.6 2.5-2.2.2.3.5.5.7.7 2.6 2.5 5.9 4.2 9.4 5.1 1.8.4 3.6.7 5.4.8-2.1 1.5-4.7 2.4-7.3 2.5C5.1 35.9.5 30.9.3 30.7m19.5.1c-.3-.3-7.3-6.6-7.3-14.6s7-14.4 7.3-14.6c.5-.4 1.2-.4 1.6 0 .3.3 7.3 6.6 7.3 14.6s-7 14.4-7.3 14.6c-.4.4-1.1.4-1.6 0m7.4-3.1q1.65-2.4 2.7-5.1c.8-2.1 1.2-4.3 1.3-6.5 0-1.8-.3-3.6-.8-5.3 2.9-1.1 6-1.6 9.1-1.6h.8c.6 0 1.1.5 1.1 1.1 0 .4.5 9.8-5.2 15.5-3.4 3.4-8 4.6-11.3 5 .7-.9 1.6-2 2.3-3.1m-22-1.8C-.5 20.2 0 10.8 0 10.4c0-.6.5-1.1 1.1-1.1h.8c3.1 0 6.2.6 9.1 1.6-.5 1.7-.8 3.5-.8 5.3 0 2.2.4 4.4 1.3 6.5q1.05 2.7 2.7 5.1c.7 1.1 1.6 2.2 2.5 3.1-3.5-.5-8.1-1.7-11.5-5" style="fill:#779393"/></svg>